<svg width="48" height="48" viewBox="0 0 48 48" fill="none" xmlns="http://www.w3.org/2000/svg">
<path d="M8 42C6.9 42 5.95867 41.6087 5.176 40.826C4.39333 40.0433 4.00133 39.1013 4 38V16C4 14.9 4.392 13.9587 5.176 13.176C5.96 12.3933 6.90133 12.0013 8 12H16V8C16 6.9 16.392 5.95867 17.176 5.176C17.96 4.39333 18.9013 4.00133 20 4H28C29.1 4 30.042 4.392 30.826 5.176C31.61 5.96 32.0013 6.90133 32 8V12H40C41.1 12 42.042 12.392 42.826 13.176C43.61 13.96 44.0013 14.9013 44 16V38C44 39.1 43.6087 40.042 42.826 40.826C42.0433 41.61 41.1013 42.0013 40 42H8ZM20 12H28V8H20V12ZM19 38V32C19.8667 31.8 20.5833 31.342 21.15 30.626C21.7167 29.91 22 29.0847 22 28.15V20H20V27.55H18.5V20H16.5V27.55H15V20H13V28.15C13 29.0833 13.2833 29.9087 13.85 30.626C14.4167 31.3433 15.1333 31.8013 16 32V38H19ZM32 38V33.6C32.8667 33.1333 33.5833 32.3087 34.15 31.126C34.7167 29.9433 35 28.568 35 27C35 25.0667 34.558 23.4167 33.674 22.05C32.79 20.6833 31.732 20 30.5 20C29.2333 20 28.1667 20.6833 27.3 22.05C26.4333 23.4167 26 25.0667 26 27C26 28.5333 26.2833 29.892 26.85 31.076C27.4167 32.26 28.1333 33.1013 29 33.6V38H32Z" fill="#81CE3A"/>
</svg>
